# File created by Blade
# Date/Time:  Tue Jan 27 18:35:03 2015
# Frame Rate: 120.000 fps
#------------------------------------------------------
:FULLY-SPECIFIED
:DEGREES
1720
root -3.844827 31.468989 -2.304485 -13.919206 11.513797 -15.196588
Spine 12.153722 -12.667090 -3.866642
Head 14.169480 -3.052089 21.500935
LeftShoulder -13.214563 11.830142 18.295439
LeftArm 29.762652 -26.646554 -74.855104
LeftForeArm 123.317242 0.000000 133.720334
LeftHand 10.089107 -0.000000 -4.932200
LeftHandThumb1 -26.253704 0.000000 33.147579
RightShoulder -16.432241 -9.558437 -4.474586
RightArm 2.404120 -36.698574 83.823362
RightForeArm -23.538637 -0.000000 28.368109
RightHand -13.693203 -0.000000 12.575564
RightHandThumb1 -24.326973 -0.000000 -32.862282
LeftUpLeg -3.161077 5.560444 9.664820
LeftLeg 36.183906 -0.000000 -0.000000
LeftFoot -31.878587 9.674439 -18.679107
LeftToeBase 9.961149 -0.000000 -0.000000
RightUpLeg -87.078095 1.666432 25.789573
RightLeg 85.802768 -0.000000 -0.000000
RightFoot -0.960091 -16.242055 15.169953
RightToeBase 0.220396 -0.000000 -0.000000
1721
root -3.839487 31.469166 -2.304182 -13.936965 11.506238 -15.152475
Spine 12.155960 -12.682870 -3.917307
Head 14.203730 -3.035557 21.461247
LeftShoulder -13.231646 11.857569 18.274363
LeftArm 29.740926 -26.856389 -75.003088
LeftForeArm 123.278832 -0.000000 133.729205
LeftHand 10.133986 0.000000 -4.776829
LeftHandThumb1 -26.253704 0.000000 33.147579
RightShoulder -16.449953 -9.560793 -4.493293
RightArm 2.354754 -36.636712 83.858279
RightForeArm -23.533564 -0.000000 28.409103
RightHand -13.712878 -0.000000 12.633497
RightHandThumb1 -24.326973 -0.000000 -32.862282
LeftUpLeg -3.104639 5.578659 9.618906
LeftLeg 36.134199 -0.000000 -0.000000
LeftFoot -31.869465 9.685183 -18.671457
LeftToeBase 9.957884 -0.000000 -0.000000
RightUpLeg -87.057733 1.664118 25.735120
RightLeg 85.831758 -0.000000 -0.000000
RightFoot -0.981162 -16.248392 15.170573
RightToeBase 0.239048 -0.000000 -0.000000
1722
root -3.835007 31.469365 -2.304733 -13.956291 11.499540 -15.117745
Spine 12.166108 -12.702448 -3.959438
Head 14.213588 -3.016808 21.420230
LeftShoulder -13.263373 11.880698 18.260092
LeftArm 29.721439 -27.007734 -75.134387
LeftForeArm 123.217366 -0.000000 133.734068
LeftHand 10.194022 -0.000000 -4.622513
LeftHandThumb1 -26.253704 0.000000 33.147579
RightShoulder -16.460819 -9.614723 -4.491961
RightArm 2.374305 -36.571603 83.847843
RightForeArm -23.553417 -0.000000 28.466133
RightHand -13.725753 -0.000000 12.655649
RightHandThumb1 -24.326973 -0.000000 -32.862282
LeftUpLeg -3.054670 5.604971 9.586227
LeftLeg 36.091823 -0.000000 -0.000000
LeftFoot -31.860580 9.682280 -18.656292
LeftToeBase 9.918475 -0.000000 -0.000000
RightUpLeg -87.043285 1.651406 25.725974
RightLeg 85.847346 -0.000000 -0.000000
RightFoot -0.982376 -16.322531 15.186384
RightToeBase 0.252089 -0.000000 -0.000000
1723
root -3.830084 31.469750 -2.304332 -13.990153 11.488940 -15.084643
Spine 12.194491 -12.702352 -3.995634
Head 14.214696 -2.997868 21.375770
LeftShoulder -13.272714 11.910490 18.244213
LeftArm 29.706391 -27.161826 -75.262671
LeftForeArm 123.159011 -0.000000 133.766541
LeftHand 10.307067 0.000000 -4.565356
LeftHandThumb1 -26.253704 0.000000 33.147579
RightShoulder -16.470251 -9.666769 -4.493484
RightArm 2.397173 -36.557326 83.831648
RightForeArm -23.519997 -0.000000 28.515229
RightHand -13.679743 -0.000000 12.629002
RightHandThumb1 -24.326973 -0.000000 -32.862282
LeftUpLeg -2.987997 5.625582 9.552359
LeftLeg 36.066618 -0.000000 -0.000000
LeftFoot -31.855058 9.645325 -18.716668
LeftToeBase 9.936557 -0.000000 -0.000000
RightUpLeg -87.012324 1.641660 25.707693
RightLeg 85.871790 -0.000000 -0.000000
RightFoot -0.982866 -16.380264 15.186179
RightToeBase 0.206661 -0.000000 -0.000000
1724
root -3.826210 31.470083 -2.303916 -14.025004 11.479751 -15.048164
Spine 12.227389 -12.693201 -4.042672
Head 14.214525 -2.991460 21.357511
LeftShoulder -13.286339 11.948891 18.246226
LeftArm 29.699608 -27.286691 -75.386587
LeftForeArm 123.129244 -0.000000 133.780978
LeftHand 10.255642 -0.000000 -4.533852
LeftHandThumb1 -26.253704 0.000000 33.147579
RightShoulder -16.482483 -9.707335 -4.485191
RightArm 2.384247 -36.510956 83.823283
RightForeArm -23.534630 -0.000000 28.613575
RightHand -13.656503 -0.000000 12.634427
RightHandThumb1 -24.326973 -0.000000 -32.862282
LeftUpLeg -2.922172 5.648903 9.530081
LeftLeg 36.024550 -0.000000 -0.000000
LeftFoot -31.825775 9.632259 -18.655856
LeftToeBase 9.901310 -0.000000 -0.000000
RightUpLeg -86.977023 1.636552 25.666349
RightLeg 85.903549 -0.000000 -0.000000
RightFoot -0.991648 -16.362569 15.182915
RightToeBase 0.212678 -0.000000 -0.000000
